<svg height="512" viewBox="0 0 512 512" width="512" xmlns="http://www.w3.org/2000/svg"><g><g><path d="m327.691 375.034-71.691 40.966-71.691-40.966a80 80 0 0 1 -40.309-69.46v-177.574l112-32 112 32v177.574a80 80 0 0 1 -40.309 69.46z" fill="#ff9811"/><g><path d="m343.976 242.075a87.763 87.763 0 0 1 -31.976 65.795v16.13a12 12 0 0 1 -12 12h-88a12 12 0 0 1 -12-12v-16.13a87.992 87.992 0 0 1 57.237-155.861c48.687.668 87.863 41.391 86.739 90.066z" fill="#d8d7da"/><g fill="#3e3d42"><circle cx="216" cy="232" r="16"/><circle cx="296" cy="232" r="16"/></g></g><g fill="#ff9811"><circle cx="32" cy="240" r="16"/><circle cx="64" cy="176" r="16"/><circle cx="64" cy="304" r="16"/><circle cx="480" cy="240" r="16"/><circle cx="448" cy="304" r="16"/><circle cx="448" cy="176" r="16"/></g></g><g><path d="m257.348 144.01c-.456-.007-.908-.01-1.362-.01a95.992 95.992 0 0 0 -63.986 167.543v12.457a20.023 20.023 0 0 0 20 20h88a20.023 20.023 0 0 0 20-20v-12.458a96.077 96.077 0 0 0 -62.652-167.532zm78.63 97.88a79.893 79.893 0 0 1 -29.07 59.809 8 8 0 0 0 -2.908 6.171v16.13a4 4 0 0 1 -4 4h-20v-16a8 8 0 0 0 -16 0v16h-16v-16a8 8 0 0 0 -16 0v16h-20a4 4 0 0 1 -4-4v-16.13a8 8 0 0 0 -2.908-6.171 79.994 79.994 0 0 1 50.9-141.7c.377 0 .756 0 1.134.008a80.307 80.307 0 0 1 78.851 81.881z"/><path d="m216 208a24 24 0 1 0 24 24 24.028 24.028 0 0 0 -24-24zm0 32a8 8 0 1 1 8-8 8.009 8.009 0 0 1 -8 8z"/><path d="m296 208a24 24 0 1 0 24 24 24.028 24.028 0 0 0 -24-24zm0 32a8 8 0 1 1 8-8 8.009 8.009 0 0 1 -8 8z"/><path d="m256 256a8 8 0 0 0 -8 8v8a8 8 0 0 0 16 0v-8a8 8 0 0 0 -8-8z"/><path d="m480 216a24.031 24.031 0 0 0 -22.62 16h-81.38v-16h8a8.009 8.009 0 0 0 6.4-3.2l21.6-28.8h12a8.451 8.451 0 0 0 1.34-.12 24 24 0 1 0 0-15.76 8.451 8.451 0 0 0 -1.34-.12h-16a8.009 8.009 0 0 0 -6.4 3.2l-21.6 28.8h-4v-72a8 8 0 0 0 -5.8-7.69l-112-32a8.024 8.024 0 0 0 -4.4 0l-112 32a8 8 0 0 0 -5.8 7.69v72h-4l-21.6-28.8a8.009 8.009 0 0 0 -6.4-3.2h-16a8.451 8.451 0 0 0 -1.34.12 24 24 0 1 0 0 15.76 8.451 8.451 0 0 0 1.34.12h12l21.6 28.8a8.009 8.009 0 0 0 6.4 3.2h8v16h-81.38a24 24 0 1 0 0 16h81.38v16h-8a8.009 8.009 0 0 0 -6.4 3.2l-21.6 28.8h-12a8.451 8.451 0 0 0 -1.34.12 24 24 0 1 0 0 15.76 8.451 8.451 0 0 0 1.34.12h16a8.009 8.009 0 0 0 6.4-3.2l21.6-28.8h4v25.57a88.2 88.2 0 0 0 44.34 76.41l71.69 40.97a8.03 8.03 0 0 0 7.94 0l71.69-40.97a88.2 88.2 0 0 0 44.34-76.41v-25.57h4l21.6 28.8a8.009 8.009 0 0 0 6.4 3.2h16a8.451 8.451 0 0 0 1.34-.12 24 24 0 1 0 0-15.76 8.451 8.451 0 0 0 -1.34-.12h-12l-21.6-28.8a8.009 8.009 0 0 0 -6.4-3.2h-8v-16h81.38a24 24 0 1 0 22.62-32zm-32-48a8 8 0 1 1 -8 8 8.011 8.011 0 0 1 8-8zm-384 16a8 8 0 1 1 8-8 8.011 8.011 0 0 1 -8 8zm-32 64a8 8 0 1 1 8-8 8.011 8.011 0 0 1 -8 8zm32 64a8 8 0 1 1 8-8 8.011 8.011 0 0 1 -8 8zm296-6.43a72.158 72.158 0 0 1 -36.28 62.52l-67.72 38.7-67.72-38.7a72.158 72.158 0 0 1 -36.28-62.52v-171.54l104-29.71 104 29.71zm88-9.57a8 8 0 1 1 -8 8 8.011 8.011 0 0 1 8-8zm32-48a8 8 0 1 1 8-8 8.011 8.011 0 0 1 -8 8z"/></g></g></svg>